<?xml version="1.0" encoding="UTF-8"?>
<svg xmlns="http://www.w3.org/2000/svg" xmlns:sqpack="https://github.com/jlevy/thinking-scratchpad/ns/sqpack/v1" width="960" height="680" viewBox="0 0 960 680" role="img" aria-labelledby="figure-title figure-description" data-static-fallback="final">
  <title id="figure-title">Prospective source construction for 140 unit squares</title>
  <desc id="figure-description">The source-selected n=140 construction, normalized to Witness/v1 and drawn with the repository deterministic house renderer. This is a feasible construction, not an optimality or chunk-structure claim.</desc>
  <metadata>
    <sqpack:profile version="5">
      <sqpack:coordinates>mathematical-y-up; svg-y-down</sqpack:coordinates>
      <sqpack:value name="annotations">minimal</sqpack:value>
      <sqpack:value name="check-detail">Exactly verifies this canonical no-tilt construction. The source catalogue reports it as best known, but this witness does not prove global optimality, uniqueness, or the catalogue claim.</sqpack:value>
      <sqpack:value name="check-kind">formal</sqpack:value>
      <sqpack:value name="check-method">exact-algebraic</sqpack:value>
      <sqpack:value name="check-result">passed</sqpack:value>
      <sqpack:value name="evidence">certified-upper-bound</sqpack:value>
      <sqpack:value name="source-id">W-prospective-source-n140</sqpack:value>
      <sqpack:value name="source-url" />
      <sqpack:value name="view">overview</sqpack:value>
    </sqpack:profile>
  </metadata>
  <rect width="960" height="680" fill="#ffffff" />
  <g id="panel-0" data-panel="n=140 prospective source construction">
    <g id="panel-0-fills" data-layer="fills">
      <polygon data-feature="square-fill" data-square="square-001" points="36,572 80.66666666666666666666666667,572 80.66666666666666666666666667,527.3333333333333333333333334 36,527.3333333333333333333333334" fill="#378c3f" fill-opacity="1.0" stroke="none" />
      <polygon data-feature="square-fill" data-square="square-002" points="80.66666666666666666666666667,572 125.3333333333333333333333333,572 125.3333333333333333333333333,527.3333333333333333333333334 80.66666666666666666666666667,527.3333333333333333333333334" fill="#00aeee" fill-opacity="1.0" stroke="none" />
      <polygon data-feature="square-fill" data-square="square-003" points="125.3333333333333333333333333,572 170,572 170,527.3333333333333333333333334 125.3333333333333333333333333,527.3333333333333333333333334" fill="#c1a0fb" fill-opacity="1.0" stroke="none" />
      <polygon data-feature="square-fill" data-square="square-004" points="170,572 214.6666666666666666666666667,572 214.6666666666666666666666667,527.3333333333333333333333334 170,527.3333333333333333333333334" fill="#00b393" fill-opacity="1.0" stroke="none" />
      <polygon data-feature="square-fill" data-square="square-005" points="214.6666666666666666666666667,572 259.3333333333333333333333334,572 259.3333333333333333333333334,527.3333333333333333333333334 214.6666666666666666666666667,527.3333333333333333333333334" fill="#3d63be" fill-opacity="1.0" stroke="none" />
      <polygon data-feature="square-fill" data-square="square-006" points="259.3333333333333333333333334,572 304,572 304,527.3333333333333333333333334 259.3333333333333333333333334,527.3333333333333333333333334" fill="#78d7d6" fill-opacity="1.0" stroke="none" />
      <polygon data-feature="square-fill" data-square="square-007" points="304,572 348.6666666666666666666666667,572 348.6666666666666666666666667,527.3333333333333333333333334 304,527.3333333333333333333333334" fill="#877deb" fill-opacity="1.0" stroke="none" />
      <polygon data-feature="square-fill" data-square="square-008" points="348.6666666666666666666666667,572 393.3333333333333333333333334,572 393.3333333333333333333333334,527.3333333333333333333333334 348.6666666666666666666666667,527.3333333333333333333333334" fill="#9fce85" fill-opacity="1.0" stroke="none" />
      <polygon data-feature="square-fill" data-square="square-009" points="393.3333333333333333333333334,572 438,572 438,527.3333333333333333333333334 393.3333333333333333333333334,527.3333333333333333333333334" fill="#0096b1" fill-opacity="1.0" stroke="none" />
      <polygon data-feature="square-fill" data-square="square-010" points="438,572 482.6666666666666666666666667,572 482.6666666666666666666666667,527.3333333333333333333333334 438,527.3333333333333333333333334" fill="#854888" fill-opacity="1.0" stroke="none" />
      <polygon data-feature="square-fill" data-square="square-011" points="482.6666666666666666666666667,572 527.3333333333333333333333334,572 527.3333333333333333333333334,527.3333333333333333333333334 482.6666666666666666666666667,527.3333333333333333333333334" fill="#83c4ff" fill-opacity="1.0" stroke="none" />
      <polygon data-feature="square-fill" data-square="square-012" points="527.3333333333333333333333334,572 572,572 572,527.3333333333333333333333334 527.3333333333333333333333334,527.3333333333333333333333334" fill="#3bb360" fill-opacity="1.0" stroke="none" />
      <polygon data-feature="square-fill" data-square="square-013" points="36,527.3333333333333333333333334 80.66666666666666666666666667,527.3333333333333333333333334 80.66666666666666666666666667,482.6666666666666666666666667 36,482.6666666666666666666666667" fill="#008376" fill-opacity="1.0" stroke="none" />
      <polygon data-feature="square-fill" data-square="square-014" points="80.66666666666666666666666667,527.3333333333333333333333334 125.3333333333333333333333333,527.3333333333333333333333334 125.3333333333333333333333333,482.6666666666666666666666667 80.66666666666666666666666667,482.6666666666666666666666667" fill="#7acfe9" fill-opacity="1.0" stroke="none" />
      <polygon data-feature="square-fill" data-square="square-015" points="125.3333333333333333333333333,527.3333333333333333333333334 170,527.3333333333333333333333334 170,482.6666666666666666666666667 125.3333333333333333333333333,482.6666666666666666666666667" fill="#0079bf" fill-opacity="1.0" stroke="none" />
      <polygon data-feature="square-fill" data-square="square-016" points="170,527.3333333333333333333333334 214.6666666666666666666666667,527.3333333333333333333333334 214.6666666666666666666666667,482.6666666666666666666666667 170,482.6666666666666666666666667" fill="#86a2ff" fill-opacity="1.0" stroke="none" />
      <polygon data-feature="square-fill" data-square="square-017" points="214.6666666666666666666666667,527.3333333333333333333333334 259.3333333333333333333333334,527.3333333333333333333333334 259.3333333333333333333333334,482.6666666666666666666666667 214.6666666666666666666666667,482.6666666666666666666666667" fill="#865eb1" fill-opacity="1.0" stroke="none" />
      <polygon data-feature="square-fill" data-square="square-018" points="259.3333333333333333333333334,527.3333333333333333333333334 304,527.3333333333333333333333334 304,482.6666666666666666666666667 259.3333333333333333333333334,482.6666666666666666666666667" fill="#7fd6b1" fill-opacity="1.0" stroke="none" />
      <polygon data-feature="square-fill" data-square="square-019" points="304,527.3333333333333333333333334 348.6666666666666666666666667,527.3333333333333333333333334 348.6666666666666666666666667,482.6666666666666666666666667 304,482.6666666666666666666666667" fill="#00afb9" fill-opacity="1.0" stroke="none" />
      <polygon data-feature="square-fill" data-square="square-020" points="348.6666666666666666666666667,527.3333333333333333333333334 393.3333333333333333333333334,527.3333333333333333333333334 393.3333333333333333333333334,482.6666666666666666666666667 348.6666666666666666666666667,482.6666666666666666666666667" fill="#c18dd8" fill-opacity="1.0" stroke="none" />
      <polygon data-feature="square-fill" data-square="square-021" points="393.3333333333333333333333334,527.3333333333333333333333334 438,527.3333333333333333333333334 438,482.6666666666666666666666667 393.3333333333333333333333334,482.6666666666666666666666667" fill="#378c3f" fill-opacity="1.0" stroke="none" />
      <polygon data-feature="square-fill" data-square="square-022" points="438,527.3333333333333333333333334 482.6666666666666666666666667,527.3333333333333333333333334 482.6666666666666666666666667,482.6666666666666666666666667 438,482.6666666666666666666666667" fill="#00aeee" fill-opacity="1.0" stroke="none" />
      <polygon data-feature="square-fill" data-square="square-023" points="482.6666666666666666666666667,527.3333333333333333333333334 527.3333333333333333333333334,527.3333333333333333333333334 527.3333333333333333333333334,482.6666666666666666666666667 482.6666666666666666666666667,482.6666666666666666666666667" fill="#c1a0fb" fill-opacity="1.0" stroke="none" />
      <polygon data-feature="square-fill" data-square="square-024" points="527.3333333333333333333333334,527.3333333333333333333333334 572,527.3333333333333333333333334 572,482.6666666666666666666666667 527.3333333333333333333333334,482.6666666666666666666666667" fill="#00b393" fill-opacity="1.0" stroke="none" />
      <polygon data-feature="square-fill" data-square="square-025" points="36,482.6666666666666666666666667 80.66666666666666666666666667,482.6666666666666666666666667 80.66666666666666666666666667,438 36,438" fill="#3d63be" fill-opacity="1.0" stroke="none" />
      <polygon data-feature="square-fill" data-square="square-026" points="80.66666666666666666666666667,482.6666666666666666666666667 125.3333333333333333333333333,482.6666666666666666666666667 125.3333333333333333333333333,438 80.66666666666666666666666667,438" fill="#78d7d6" fill-opacity="1.0" stroke="none" />
      <polygon data-feature="square-fill" data-square="square-027" points="125.3333333333333333333333333,482.6666666666666666666666667 170,482.6666666666666666666666667 170,438 125.3333333333333333333333333,438" fill="#877deb" fill-opacity="1.0" stroke="none" />
      <polygon data-feature="square-fill" data-square="square-028" points="170,482.6666666666666666666666667 214.6666666666666666666666667,482.6666666666666666666666667 214.6666666666666666666666667,438 170,438" fill="#9fce85" fill-opacity="1.0" stroke="none" />
      <polygon data-feature="square-fill" data-square="square-029" points="214.6666666666666666666666667,482.6666666666666666666666667 259.3333333333333333333333334,482.6666666666666666666666667 259.3333333333333333333333334,438 214.6666666666666666666666667,438" fill="#0096b1" fill-opacity="1.0" stroke="none" />
      <polygon data-feature="square-fill" data-square="square-030" points="259.3333333333333333333333334,482.6666666666666666666666667 304,482.6666666666666666666666667 304,438 259.3333333333333333333333334,438" fill="#854888" fill-opacity="1.0" stroke="none" />
      <polygon data-feature="square-fill" data-square="square-031" points="304,482.6666666666666666666666667 348.6666666666666666666666667,482.6666666666666666666666667 348.6666666666666666666666667,438 304,438" fill="#83c4ff" fill-opacity="1.0" stroke="none" />
      <polygon data-feature="square-fill" data-square="square-032" points="348.6666666666666666666666667,482.6666666666666666666666667 393.3333333333333333333333334,482.6666666666666666666666667 393.3333333333333333333333334,438 348.6666666666666666666666667,438" fill="#3bb360" fill-opacity="1.0" stroke="none" />
      <polygon data-feature="square-fill" data-square="square-033" points="393.3333333333333333333333334,482.6666666666666666666666667 438,482.6666666666666666666666667 438,438 393.3333333333333333333333334,438" fill="#008376" fill-opacity="1.0" stroke="none" />
      <polygon data-feature="square-fill" data-square="square-034" points="438,482.6666666666666666666666667 482.6666666666666666666666667,482.6666666666666666666666667 482.6666666666666666666666667,438 438,438" fill="#7acfe9" fill-opacity="1.0" stroke="none" />
      <polygon data-feature="square-fill" data-square="square-035" points="482.6666666666666666666666667,482.6666666666666666666666667 527.3333333333333333333333334,482.6666666666666666666666667 527.3333333333333333333333334,438 482.6666666666666666666666667,438" fill="#0079bf" fill-opacity="1.0" stroke="none" />
      <polygon data-feature="square-fill" data-square="square-036" points="527.3333333333333333333333334,482.6666666666666666666666667 572,482.6666666666666666666666667 572,438 527.3333333333333333333333334,438" fill="#86a2ff" fill-opacity="1.0" stroke="none" />
      <polygon data-feature="square-fill" data-square="square-037" points="36,438 80.66666666666666666666666667,438 80.66666666666666666666666667,393.3333333333333333333333334 36,393.3333333333333333333333334" fill="#865eb1" fill-opacity="1.0" stroke="none" />
      <polygon data-feature="square-fill" data-square="square-038" points="80.66666666666666666666666667,438 125.3333333333333333333333333,438 125.3333333333333333333333333,393.3333333333333333333333334 80.66666666666666666666666667,393.3333333333333333333333334" fill="#7fd6b1" fill-opacity="1.0" stroke="none" />
      <polygon data-feature="square-fill" data-square="square-039" points="125.3333333333333333333333333,438 170,438 170,393.3333333333333333333333334 125.3333333333333333333333333,393.3333333333333333333333334" fill="#00afb9" fill-opacity="1.0" stroke="none" />
      <polygon data-feature="square-fill" data-square="square-040" points="170,438 214.6666666666666666666666667,438 214.6666666666666666666666667,393.3333333333333333333333334 170,393.3333333333333333333333334" fill="#c18dd8" fill-opacity="1.0" stroke="none" />
      <polygon data-feature="square-fill" data-square="square-041" points="214.6666666666666666666666667,438 259.3333333333333333333333334,438 259.3333333333333333333333334,393.3333333333333333333333334 214.6666666666666666666666667,393.3333333333333333333333334" fill="#378c3f" fill-opacity="1.0" stroke="none" />
      <polygon data-feature="square-fill" data-square="square-042" points="259.3333333333333333333333334,438 304,438 304,393.3333333333333333333333334 259.3333333333333333333333334,393.3333333333333333333333334" fill="#00aeee" fill-opacity="1.0" stroke="none" />
      <polygon data-feature="square-fill" data-square="square-043" points="304,438 348.6666666666666666666666667,438 348.6666666666666666666666667,393.3333333333333333333333334 304,393.3333333333333333333333334" fill="#c1a0fb" fill-opacity="1.0" stroke="none" />
      <polygon data-feature="square-fill" data-square="square-044" points="348.6666666666666666666666667,438 393.3333333333333333333333334,438 393.3333333333333333333333334,393.3333333333333333333333334 348.6666666666666666666666667,393.3333333333333333333333334" fill="#00b393" fill-opacity="1.0" stroke="none" />
      <polygon data-feature="square-fill" data-square="square-045" points="393.3333333333333333333333334,438 438,438 438,393.3333333333333333333333334 393.3333333333333333333333334,393.3333333333333333333333334" fill="#3d63be" fill-opacity="1.0" stroke="none" />
      <polygon data-feature="square-fill" data-square="square-046" points="438,438 482.6666666666666666666666667,438 482.6666666666666666666666667,393.3333333333333333333333334 438,393.3333333333333333333333334" fill="#78d7d6" fill-opacity="1.0" stroke="none" />
      <polygon data-feature="square-fill" data-square="square-047" points="482.6666666666666666666666667,438 527.3333333333333333333333334,438 527.3333333333333333333333334,393.3333333333333333333333334 482.6666666666666666666666667,393.3333333333333333333333334" fill="#877deb" fill-opacity="1.0" stroke="none" />
      <polygon data-feature="square-fill" data-square="square-048" points="527.3333333333333333333333334,438 572,438 572,393.3333333333333333333333334 527.3333333333333333333333334,393.3333333333333333333333334" fill="#9fce85" fill-opacity="1.0" stroke="none" />
      <polygon data-feature="square-fill" data-square="square-049" points="36,393.3333333333333333333333334 80.66666666666666666666666667,393.3333333333333333333333334 80.66666666666666666666666667,348.6666666666666666666666667 36,348.6666666666666666666666667" fill="#0096b1" fill-opacity="1.0" stroke="none" />
      <polygon data-feature="square-fill" data-square="square-050" points="80.66666666666666666666666667,393.3333333333333333333333334 125.3333333333333333333333333,393.3333333333333333333333334 125.3333333333333333333333333,348.6666666666666666666666667 80.66666666666666666666666667,348.6666666666666666666666667" fill="#854888" fill-opacity="1.0" stroke="none" />
      <polygon data-feature="square-fill" data-square="square-051" points="125.3333333333333333333333333,393.3333333333333333333333334 170,393.3333333333333333333333334 170,348.6666666666666666666666667 125.3333333333333333333333333,348.6666666666666666666666667" fill="#83c4ff" fill-opacity="1.0" stroke="none" />
      <polygon data-feature="square-fill" data-square="square-052" points="170,393.3333333333333333333333334 214.6666666666666666666666667,393.3333333333333333333333334 214.6666666666666666666666667,348.6666666666666666666666667 170,348.6666666666666666666666667" fill="#3bb360" fill-opacity="1.0" stroke="none" />
      <polygon data-feature="square-fill" data-square="square-053" points="214.6666666666666666666666667,393.3333333333333333333333334 259.3333333333333333333333334,393.3333333333333333333333334 259.3333333333333333333333334,348.6666666666666666666666667 214.6666666666666666666666667,348.6666666666666666666666667" fill="#008376" fill-opacity="1.0" stroke="none" />
      <polygon data-feature="square-fill" data-square="square-054" points="259.3333333333333333333333334,393.3333333333333333333333334 304,393.3333333333333333333333334 304,348.6666666666666666666666667 259.3333333333333333333333334,348.6666666666666666666666667" fill="#7acfe9" fill-opacity="1.0" stroke="none" />
      <polygon data-feature="square-fill" data-square="square-055" points="304,393.3333333333333333333333334 348.6666666666666666666666667,393.3333333333333333333333334 348.6666666666666666666666667,348.6666666666666666666666667 304,348.6666666666666666666666667" fill="#0079bf" fill-opacity="1.0" stroke="none" />
      <polygon data-feature="square-fill" data-square="square-056" points="348.6666666666666666666666667,393.3333333333333333333333334 393.3333333333333333333333334,393.3333333333333333333333334 393.3333333333333333333333334,348.6666666666666666666666667 348.6666666666666666666666667,348.6666666666666666666666667" fill="#86a2ff" fill-opacity="1.0" stroke="none" />
      <polygon data-feature="square-fill" data-square="square-057" points="393.3333333333333333333333334,393.3333333333333333333333334 438,393.3333333333333333333333334 438,348.6666666666666666666666667 393.3333333333333333333333334,348.6666666666666666666666667" fill="#865eb1" fill-opacity="1.0" stroke="none" />
      <polygon data-feature="square-fill" data-square="square-058" points="438,393.3333333333333333333333334 482.6666666666666666666666667,393.3333333333333333333333334 482.6666666666666666666666667,348.6666666666666666666666667 438,348.6666666666666666666666667" fill="#7fd6b1" fill-opacity="1.0" stroke="none" />
      <polygon data-feature="square-fill" data-square="square-059" points="482.6666666666666666666666667,393.3333333333333333333333334 527.3333333333333333333333334,393.3333333333333333333333334 527.3333333333333333333333334,348.6666666666666666666666667 482.6666666666666666666666667,348.6666666666666666666666667" fill="#00afb9" fill-opacity="1.0" stroke="none" />
      <polygon data-feature="square-fill" data-square="square-060" points="527.3333333333333333333333334,393.3333333333333333333333334 572,393.3333333333333333333333334 572,348.6666666666666666666666667 527.3333333333333333333333334,348.6666666666666666666666667" fill="#c18dd8" fill-opacity="1.0" stroke="none" />
      <polygon data-feature="square-fill" data-square="square-061" points="36,348.6666666666666666666666667 80.66666666666666666666666667,348.6666666666666666666666667 80.66666666666666666666666667,304 36,304" fill="#378c3f" fill-opacity="1.0" stroke="none" />
      <polygon data-feature="square-fill" data-square="square-062" points="80.66666666666666666666666667,348.6666666666666666666666667 125.3333333333333333333333333,348.6666666666666666666666667 125.3333333333333333333333333,304 80.66666666666666666666666667,304" fill="#00aeee" fill-opacity="1.0" stroke="none" />
      <polygon data-feature="square-fill" data-square="square-063" points="125.3333333333333333333333333,348.6666666666666666666666667 170,348.6666666666666666666666667 170,304 125.3333333333333333333333333,304" fill="#c1a0fb" fill-opacity="1.0" stroke="none" />
      <polygon data-feature="square-fill" data-square="square-064" points="170,348.6666666666666666666666667 214.6666666666666666666666667,348.6666666666666666666666667 214.6666666666666666666666667,304 170,304" fill="#00b393" fill-opacity="1.0" stroke="none" />
      <polygon data-feature="square-fill" data-square="square-065" points="214.6666666666666666666666667,348.6666666666666666666666667 259.3333333333333333333333334,348.6666666666666666666666667 259.3333333333333333333333334,304 214.6666666666666666666666667,304" fill="#3d63be" fill-opacity="1.0" stroke="none" />
      <polygon data-feature="square-fill" data-square="square-066" points="259.3333333333333333333333334,348.6666666666666666666666667 304,348.6666666666666666666666667 304,304 259.3333333333333333333333334,304" fill="#78d7d6" fill-opacity="1.0" stroke="none" />
      <polygon data-feature="square-fill" data-square="square-067" points="304,348.6666666666666666666666667 348.6666666666666666666666667,348.6666666666666666666666667 348.6666666666666666666666667,304 304,304" fill="#877deb" fill-opacity="1.0" stroke="none" />
      <polygon data-feature="square-fill" data-square="square-068" points="348.6666666666666666666666667,348.6666666666666666666666667 393.3333333333333333333333334,348.6666666666666666666666667 393.3333333333333333333333334,304 348.6666666666666666666666667,304" fill="#9fce85" fill-opacity="1.0" stroke="none" />
      <polygon data-feature="square-fill" data-square="square-069" points="393.3333333333333333333333334,348.6666666666666666666666667 438,348.6666666666666666666666667 438,304 393.3333333333333333333333334,304" fill="#0096b1" fill-opacity="1.0" stroke="none" />
      <polygon data-feature="square-fill" data-square="square-070" points="438,348.6666666666666666666666667 482.6666666666666666666666667,348.6666666666666666666666667 482.6666666666666666666666667,304 438,304" fill="#854888" fill-opacity="1.0" stroke="none" />
      <polygon data-feature="square-fill" data-square="square-071" points="482.6666666666666666666666667,348.6666666666666666666666667 527.3333333333333333333333334,348.6666666666666666666666667 527.3333333333333333333333334,304 482.6666666666666666666666667,304" fill="#83c4ff" fill-opacity="1.0" stroke="none" />
      <polygon data-feature="square-fill" data-square="square-072" points="527.3333333333333333333333334,348.6666666666666666666666667 572,348.6666666666666666666666667 572,304 527.3333333333333333333333334,304" fill="#3bb360" fill-opacity="1.0" stroke="none" />
      <polygon data-feature="square-fill" data-square="square-073" points="36,304 80.66666666666666666666666667,304 80.66666666666666666666666667,259.3333333333333333333333334 36,259.3333333333333333333333334" fill="#008376" fill-opacity="1.0" stroke="none" />
      <polygon data-feature="square-fill" data-square="square-074" points="80.66666666666666666666666667,304 125.3333333333333333333333333,304 125.3333333333333333333333333,259.3333333333333333333333334 80.66666666666666666666666667,259.3333333333333333333333334" fill="#7acfe9" fill-opacity="1.0" stroke="none" />
      <polygon data-feature="square-fill" data-square="square-075" points="125.3333333333333333333333333,304 170,304 170,259.3333333333333333333333334 125.3333333333333333333333333,259.3333333333333333333333334" fill="#0079bf" fill-opacity="1.0" stroke="none" />
      <polygon data-feature="square-fill" data-square="square-076" points="170,304 214.6666666666666666666666667,304 214.6666666666666666666666667,259.3333333333333333333333334 170,259.3333333333333333333333334" fill="#86a2ff" fill-opacity="1.0" stroke="none" />
      <polygon data-feature="square-fill" data-square="square-077" points="214.6666666666666666666666667,304 259.3333333333333333333333334,304 259.3333333333333333333333334,259.3333333333333333333333334 214.6666666666666666666666667,259.3333333333333333333333334" fill="#865eb1" fill-opacity="1.0" stroke="none" />
      <polygon data-feature="square-fill" data-square="square-078" points="259.3333333333333333333333334,304 304,304 304,259.3333333333333333333333334 259.3333333333333333333333334,259.3333333333333333333333334" fill="#7fd6b1" fill-opacity="1.0" stroke="none" />
      <polygon data-feature="square-fill" data-square="square-079" points="304,304 348.6666666666666666666666667,304 348.6666666666666666666666667,259.3333333333333333333333334 304,259.3333333333333333333333334" fill="#00afb9" fill-opacity="1.0" stroke="none" />
      <polygon data-feature="square-fill" data-square="square-080" points="348.6666666666666666666666667,304 393.3333333333333333333333334,304 393.3333333333333333333333334,259.3333333333333333333333334 348.6666666666666666666666667,259.3333333333333333333333334" fill="#c18dd8" fill-opacity="1.0" stroke="none" />
      <polygon data-feature="square-fill" data-square="square-081" points="393.3333333333333333333333334,304 438,304 438,259.3333333333333333333333334 393.3333333333333333333333334,259.3333333333333333333333334" fill="#378c3f" fill-opacity="1.0" stroke="none" />
      <polygon data-feature="square-fill" data-square="square-082" points="438,304 482.6666666666666666666666667,304 482.6666666666666666666666667,259.3333333333333333333333334 438,259.3333333333333333333333334" fill="#00aeee" fill-opacity="1.0" stroke="none" />
      <polygon data-feature="square-fill" data-square="square-083" points="482.6666666666666666666666667,304 527.3333333333333333333333334,304 527.3333333333333333333333334,259.3333333333333333333333334 482.6666666666666666666666667,259.3333333333333333333333334" fill="#c1a0fb" fill-opacity="1.0" stroke="none" />
      <polygon data-feature="square-fill" data-square="square-084" points="527.3333333333333333333333334,304 572,304 572,259.3333333333333333333333334 527.3333333333333333333333334,259.3333333333333333333333334" fill="#00b393" fill-opacity="1.0" stroke="none" />
      <polygon data-feature="square-fill" data-square="square-085" points="36,259.3333333333333333333333334 80.66666666666666666666666667,259.3333333333333333333333334 80.66666666666666666666666667,214.6666666666666666666666667 36,214.6666666666666666666666667" fill="#3d63be" fill-opacity="1.0" stroke="none" />
      <polygon data-feature="square-fill" data-square="square-086" points="80.66666666666666666666666667,259.3333333333333333333333334 125.3333333333333333333333333,259.3333333333333333333333334 125.3333333333333333333333333,214.6666666666666666666666667 80.66666666666666666666666667,214.6666666666666666666666667" fill="#78d7d6" fill-opacity="1.0" stroke="none" />
      <polygon data-feature="square-fill" data-square="square-087" points="125.3333333333333333333333333,259.3333333333333333333333334 170,259.3333333333333333333333334 170,214.6666666666666666666666667 125.3333333333333333333333333,214.6666666666666666666666667" fill="#877deb" fill-opacity="1.0" stroke="none" />
      <polygon data-feature="square-fill" data-square="square-088" points="170,259.3333333333333333333333334 214.6666666666666666666666667,259.3333333333333333333333334 214.6666666666666666666666667,214.6666666666666666666666667 170,214.6666666666666666666666667" fill="#9fce85" fill-opacity="1.0" stroke="none" />
      <polygon data-feature="square-fill" data-square="square-089" points="214.6666666666666666666666667,259.3333333333333333333333334 259.3333333333333333333333334,259.3333333333333333333333334 259.3333333333333333333333334,214.6666666666666666666666667 214.6666666666666666666666667,214.6666666666666666666666667" fill="#0096b1" fill-opacity="1.0" stroke="none" />
      <polygon data-feature="square-fill" data-square="square-090" points="259.3333333333333333333333334,259.3333333333333333333333334 304,259.3333333333333333333333334 304,214.6666666666666666666666667 259.3333333333333333333333334,214.6666666666666666666666667" fill="#854888" fill-opacity="1.0" stroke="none" />
      <polygon data-feature="square-fill" data-square="square-091" points="304,259.3333333333333333333333334 348.6666666666666666666666667,259.3333333333333333333333334 348.6666666666666666666666667,214.6666666666666666666666667 304,214.6666666666666666666666667" fill="#83c4ff" fill-opacity="1.0" stroke="none" />
      <polygon data-feature="square-fill" data-square="square-092" points="348.6666666666666666666666667,259.3333333333333333333333334 393.3333333333333333333333334,259.3333333333333333333333334 393.3333333333333333333333334,214.6666666666666666666666667 348.6666666666666666666666667,214.6666666666666666666666667" fill="#3bb360" fill-opacity="1.0" stroke="none" />
      <polygon data-feature="square-fill" data-square="square-093" points="393.3333333333333333333333334,259.3333333333333333333333334 438,259.3333333333333333333333334 438,214.6666666666666666666666667 393.3333333333333333333333334,214.6666666666666666666666667" fill="#008376" fill-opacity="1.0" stroke="none" />
      <polygon data-feature="square-fill" data-square="square-094" points="438,259.3333333333333333333333334 482.6666666666666666666666667,259.3333333333333333333333334 482.6666666666666666666666667,214.6666666666666666666666667 438,214.6666666666666666666666667" fill="#7acfe9" fill-opacity="1.0" stroke="none" />
      <polygon data-feature="square-fill" data-square="square-095" points="482.6666666666666666666666667,259.3333333333333333333333334 527.3333333333333333333333334,259.3333333333333333333333334 527.3333333333333333333333334,214.6666666666666666666666667 482.6666666666666666666666667,214.6666666666666666666666667" fill="#0079bf" fill-opacity="1.0" stroke="none" />
      <polygon data-feature="square-fill" data-square="square-096" points="527.3333333333333333333333334,259.3333333333333333333333334 572,259.3333333333333333333333334 572,214.6666666666666666666666667 527.3333333333333333333333334,214.6666666666666666666666667" fill="#86a2ff" fill-opacity="1.0" stroke="none" />
      <polygon data-feature="square-fill" data-square="square-097" points="36,214.6666666666666666666666667 80.66666666666666666666666667,214.6666666666666666666666667 80.66666666666666666666666667,170 36,170" fill="#865eb1" fill-opacity="1.0" stroke="none" />
      <polygon data-feature="square-fill" data-square="square-098" points="80.66666666666666666666666667,214.6666666666666666666666667 125.3333333333333333333333333,214.6666666666666666666666667 125.3333333333333333333333333,170 80.66666666666666666666666667,170" fill="#7fd6b1" fill-opacity="1.0" stroke="none" />
      <polygon data-feature="square-fill" data-square="square-099" points="125.3333333333333333333333333,214.6666666666666666666666667 170,214.6666666666666666666666667 170,170 125.3333333333333333333333333,170" fill="#00afb9" fill-opacity="1.0" stroke="none" />
      <polygon data-feature="square-fill" data-square="square-100" points="170,214.6666666666666666666666667 214.6666666666666666666666667,214.6666666666666666666666667 214.6666666666666666666666667,170 170,170" fill="#c18dd8" fill-opacity="1.0" stroke="none" />
      <polygon data-feature="square-fill" data-square="square-101" points="214.6666666666666666666666667,214.6666666666666666666666667 259.3333333333333333333333334,214.6666666666666666666666667 259.3333333333333333333333334,170 214.6666666666666666666666667,170" fill="#378c3f" fill-opacity="1.0" stroke="none" />
      <polygon data-feature="square-fill" data-square="square-102" points="259.3333333333333333333333334,214.6666666666666666666666667 304,214.6666666666666666666666667 304,170 259.3333333333333333333333334,170" fill="#00aeee" fill-opacity="1.0" stroke="none" />
      <polygon data-feature="square-fill" data-square="square-103" points="304,214.6666666666666666666666667 348.6666666666666666666666667,214.6666666666666666666666667 348.6666666666666666666666667,170 304,170" fill="#c1a0fb" fill-opacity="1.0" stroke="none" />
      <polygon data-feature="square-fill" data-square="square-104" points="348.6666666666666666666666667,214.6666666666666666666666667 393.3333333333333333333333334,214.6666666666666666666666667 393.3333333333333333333333334,170 348.6666666666666666666666667,170" fill="#00b393" fill-opacity="1.0" stroke="none" />
      <polygon data-feature="square-fill" data-square="square-105" points="393.3333333333333333333333334,214.6666666666666666666666667 438,214.6666666666666666666666667 438,170 393.3333333333333333333333334,170" fill="#3d63be" fill-opacity="1.0" stroke="none" />
      <polygon data-feature="square-fill" data-square="square-106" points="438,214.6666666666666666666666667 482.6666666666666666666666667,214.6666666666666666666666667 482.6666666666666666666666667,170 438,170" fill="#78d7d6" fill-opacity="1.0" stroke="none" />
      <polygon data-feature="square-fill" data-square="square-107" points="482.6666666666666666666666667,214.6666666666666666666666667 527.3333333333333333333333334,214.6666666666666666666666667 527.3333333333333333333333334,170 482.6666666666666666666666667,170" fill="#877deb" fill-opacity="1.0" stroke="none" />
      <polygon data-feature="square-fill" data-square="square-108" points="527.3333333333333333333333334,214.6666666666666666666666667 572,214.6666666666666666666666667 572,170 527.3333333333333333333333334,170" fill="#9fce85" fill-opacity="1.0" stroke="none" />
      <polygon data-feature="square-fill" data-square="square-109" points="36,170 80.66666666666666666666666667,170 80.66666666666666666666666667,125.3333333333333333333333333 36,125.3333333333333333333333333" fill="#0096b1" fill-opacity="1.0" stroke="none" />
      <polygon data-feature="square-fill" data-square="square-110" points="80.66666666666666666666666667,170 125.3333333333333333333333333,170 125.3333333333333333333333333,125.3333333333333333333333333 80.66666666666666666666666667,125.3333333333333333333333333" fill="#854888" fill-opacity="1.0" stroke="none" />
      <polygon data-feature="square-fill" data-square="square-111" points="125.3333333333333333333333333,170 170,170 170,125.3333333333333333333333333 125.3333333333333333333333333,125.3333333333333333333333333" fill="#83c4ff" fill-opacity="1.0" stroke="none" />
      <polygon data-feature="square-fill" data-square="square-112" points="170,170 214.6666666666666666666666667,170 214.6666666666666666666666667,125.3333333333333333333333333 170,125.3333333333333333333333333" fill="#3bb360" fill-opacity="1.0" stroke="none" />
      <polygon data-feature="square-fill" data-square="square-113" points="214.6666666666666666666666667,170 259.3333333333333333333333334,170 259.3333333333333333333333334,125.3333333333333333333333333 214.6666666666666666666666667,125.3333333333333333333333333" fill="#008376" fill-opacity="1.0" stroke="none" />
      <polygon data-feature="square-fill" data-square="square-114" points="259.3333333333333333333333334,170 304,170 304,125.3333333333333333333333333 259.3333333333333333333333334,125.3333333333333333333333333" fill="#7acfe9" fill-opacity="1.0" stroke="none" />
      <polygon data-feature="square-fill" data-square="square-115" points="304,170 348.6666666666666666666666667,170 348.6666666666666666666666667,125.3333333333333333333333333 304,125.3333333333333333333333333" fill="#0079bf" fill-opacity="1.0" stroke="none" />
      <polygon data-feature="square-fill" data-square="square-116" points="348.6666666666666666666666667,170 393.3333333333333333333333334,170 393.3333333333333333333333334,125.3333333333333333333333333 348.6666666666666666666666667,125.3333333333333333333333333" fill="#86a2ff" fill-opacity="1.0" stroke="none" />
      <polygon data-feature="square-fill" data-square="square-117" points="393.3333333333333333333333334,170 438,170 438,125.3333333333333333333333333 393.3333333333333333333333334,125.3333333333333333333333333" fill="#865eb1" fill-opacity="1.0" stroke="none" />
      <polygon data-feature="square-fill" data-square="square-118" points="438,170 482.6666666666666666666666667,170 482.6666666666666666666666667,125.3333333333333333333333333 438,125.3333333333333333333333333" fill="#7fd6b1" fill-opacity="1.0" stroke="none" />
      <polygon data-feature="square-fill" data-square="square-119" points="482.6666666666666666666666667,170 527.3333333333333333333333334,170 527.3333333333333333333333334,125.3333333333333333333333333 482.6666666666666666666666667,125.3333333333333333333333333" fill="#00afb9" fill-opacity="1.0" stroke="none" />
      <polygon data-feature="square-fill" data-square="square-120" points="527.3333333333333333333333334,170 572,170 572,125.3333333333333333333333333 527.3333333333333333333333334,125.3333333333333333333333333" fill="#c18dd8" fill-opacity="1.0" stroke="none" />
      <polygon data-feature="square-fill" data-square="square-121" points="36,125.3333333333333333333333333 80.66666666666666666666666667,125.3333333333333333333333333 80.66666666666666666666666667,80.66666666666666666666666667 36,80.66666666666666666666666667" fill="#378c3f" fill-opacity="1.0" stroke="none" />
      <polygon data-feature="square-fill" data-square="square-122" points="80.66666666666666666666666667,125.3333333333333333333333333 125.3333333333333333333333333,125.3333333333333333333333333 125.3333333333333333333333333,80.66666666666666666666666667 80.66666666666666666666666667,80.66666666666666666666666667" fill="#00aeee" fill-opacity="1.0" stroke="none" />
      <polygon data-feature="square-fill" data-square="square-123" points="125.3333333333333333333333333,125.3333333333333333333333333 170,125.3333333333333333333333333 170,80.66666666666666666666666667 125.3333333333333333333333333,80.66666666666666666666666667" fill="#c1a0fb" fill-opacity="1.0" stroke="none" />
      <polygon data-feature="square-fill" data-square="square-124" points="170,125.3333333333333333333333333 214.6666666666666666666666667,125.3333333333333333333333333 214.6666666666666666666666667,80.66666666666666666666666667 170,80.66666666666666666666666667" fill="#00b393" fill-opacity="1.0" stroke="none" />
      <polygon data-feature="square-fill" data-square="square-125" points="214.6666666666666666666666667,125.3333333333333333333333333 259.3333333333333333333333334,125.3333333333333333333333333 259.3333333333333333333333334,80.66666666666666666666666667 214.6666666666666666666666667,80.66666666666666666666666667" fill="#3d63be" fill-opacity="1.0" stroke="none" />
      <polygon data-feature="square-fill" data-square="square-126" points="259.3333333333333333333333334,125.3333333333333333333333333 304,125.3333333333333333333333333 304,80.66666666666666666666666667 259.3333333333333333333333334,80.66666666666666666666666667" fill="#78d7d6" fill-opacity="1.0" stroke="none" />
      <polygon data-feature="square-fill" data-square="square-127" points="304,125.3333333333333333333333333 348.6666666666666666666666667,125.3333333333333333333333333 348.6666666666666666666666667,80.66666666666666666666666667 304,80.66666666666666666666666667" fill="#877deb" fill-opacity="1.0" stroke="none" />
      <polygon data-feature="square-fill" data-square="square-128" points="348.6666666666666666666666667,125.3333333333333333333333333 393.3333333333333333333333334,125.3333333333333333333333333 393.3333333333333333333333334,80.66666666666666666666666667 348.6666666666666666666666667,80.66666666666666666666666667" fill="#9fce85" fill-opacity="1.0" stroke="none" />
      <polygon data-feature="square-fill" data-square="square-129" points="393.3333333333333333333333334,125.3333333333333333333333333 438,125.3333333333333333333333333 438,80.66666666666666666666666667 393.3333333333333333333333334,80.66666666666666666666666667" fill="#0096b1" fill-opacity="1.0" stroke="none" />
      <polygon data-feature="square-fill" data-square="square-130" points="438,125.3333333333333333333333333 482.6666666666666666666666667,125.3333333333333333333333333 482.6666666666666666666666667,80.66666666666666666666666667 438,80.66666666666666666666666667" fill="#854888" fill-opacity="1.0" stroke="none" />
      <polygon data-feature="square-fill" data-square="square-131" points="482.6666666666666666666666667,125.3333333333333333333333333 527.3333333333333333333333334,125.3333333333333333333333333 527.3333333333333333333333334,80.66666666666666666666666667 482.6666666666666666666666667,80.66666666666666666666666667" fill="#83c4ff" fill-opacity="1.0" stroke="none" />
      <polygon data-feature="square-fill" data-square="square-132" points="527.3333333333333333333333334,125.3333333333333333333333333 572,125.3333333333333333333333333 572,80.66666666666666666666666667 527.3333333333333333333333334,80.66666666666666666666666667" fill="#3bb360" fill-opacity="1.0" stroke="none" />
      <polygon data-feature="square-fill" data-square="square-133" points="36,80.66666666666666666666666667 80.66666666666666666666666667,80.66666666666666666666666667 80.66666666666666666666666667,36 36,36" fill="#008376" fill-opacity="1.0" stroke="none" />
      <polygon data-feature="square-fill" data-square="square-134" points="80.66666666666666666666666667,80.66666666666666666666666667 125.3333333333333333333333333,80.66666666666666666666666667 125.3333333333333333333333333,36 80.66666666666666666666666667,36" fill="#7acfe9" fill-opacity="1.0" stroke="none" />
      <polygon data-feature="square-fill" data-square="square-135" points="125.3333333333333333333333333,80.66666666666666666666666667 170,80.66666666666666666666666667 170,36 125.3333333333333333333333333,36" fill="#0079bf" fill-opacity="1.0" stroke="none" />
      <polygon data-feature="square-fill" data-square="square-136" points="170,80.66666666666666666666666667 214.6666666666666666666666667,80.66666666666666666666666667 214.6666666666666666666666667,36 170,36" fill="#86a2ff" fill-opacity="1.0" stroke="none" />
      <polygon data-feature="square-fill" data-square="square-137" points="214.6666666666666666666666667,80.66666666666666666666666667 259.3333333333333333333333334,80.66666666666666666666666667 259.3333333333333333333333334,36 214.6666666666666666666666667,36" fill="#865eb1" fill-opacity="1.0" stroke="none" />
      <polygon data-feature="square-fill" data-square="square-138" points="259.3333333333333333333333334,80.66666666666666666666666667 304,80.66666666666666666666666667 304,36 259.3333333333333333333333334,36" fill="#7fd6b1" fill-opacity="1.0" stroke="none" />
      <polygon data-feature="square-fill" data-square="square-139" points="304,80.66666666666666666666666667 348.6666666666666666666666667,80.66666666666666666666666667 348.6666666666666666666666667,36 304,36" fill="#00afb9" fill-opacity="1.0" stroke="none" />
      <polygon data-feature="square-fill" data-square="square-140" points="348.6666666666666666666666667,80.66666666666666666666666667 393.3333333333333333333333334,80.66666666666666666666666667 393.3333333333333333333333334,36 348.6666666666666666666666667,36" fill="#c18dd8" fill-opacity="1.0" stroke="none" />
    </g>
    <g id="panel-0-outlines" data-layer="outlines">
      <polygon data-feature="square-outline" data-square="square-001" points="36,572 80.66666666666666666666666667,572 80.66666666666666666666666667,527.3333333333333333333333334 36,527.3333333333333333333333334" stroke-linejoin="round" fill="none" stroke="#000000" stroke-width="1.25" vector-effect="non-scaling-stroke" />
      <polygon data-feature="square-outline" data-square="square-002" points="80.66666666666666666666666667,572 125.3333333333333333333333333,572 125.3333333333333333333333333,527.3333333333333333333333334 80.66666666666666666666666667,527.3333333333333333333333334" stroke-linejoin="round" fill="none" stroke="#000000" stroke-width="1.25" vector-effect="non-scaling-stroke" />
      <polygon data-feature="square-outline" data-square="square-003" points="125.3333333333333333333333333,572 170,572 170,527.3333333333333333333333334 125.3333333333333333333333333,527.3333333333333333333333334" stroke-linejoin="round" fill="none" stroke="#000000" stroke-width="1.25" vector-effect="non-scaling-stroke" />
      <polygon data-feature="square-outline" data-square="square-004" points="170,572 214.6666666666666666666666667,572 214.6666666666666666666666667,527.3333333333333333333333334 170,527.3333333333333333333333334" stroke-linejoin="round" fill="none" stroke="#000000" stroke-width="1.25" vector-effect="non-scaling-stroke" />
      <polygon data-feature="square-outline" data-square="square-005" points="214.6666666666666666666666667,572 259.3333333333333333333333334,572 259.3333333333333333333333334,527.3333333333333333333333334 214.6666666666666666666666667,527.3333333333333333333333334" stroke-linejoin="round" fill="none" stroke="#000000" stroke-width="1.25" vector-effect="non-scaling-stroke" />
      <polygon data-feature="square-outline" data-square="square-006" points="259.3333333333333333333333334,572 304,572 304,527.3333333333333333333333334 259.3333333333333333333333334,527.3333333333333333333333334" stroke-linejoin="round" fill="none" stroke="#000000" stroke-width="1.25" vector-effect="non-scaling-stroke" />
      <polygon data-feature="square-outline" data-square="square-007" points="304,572 348.6666666666666666666666667,572 348.6666666666666666666666667,527.3333333333333333333333334 304,527.3333333333333333333333334" stroke-linejoin="round" fill="none" stroke="#000000" stroke-width="1.25" vector-effect="non-scaling-stroke" />
      <polygon data-feature="square-outline" data-square="square-008" points="348.6666666666666666666666667,572 393.3333333333333333333333334,572 393.3333333333333333333333334,527.3333333333333333333333334 348.6666666666666666666666667,527.3333333333333333333333334" stroke-linejoin="round" fill="none" stroke="#000000" stroke-width="1.25" vector-effect="non-scaling-stroke" />
      <polygon data-feature="square-outline" data-square="square-009" points="393.3333333333333333333333334,572 438,572 438,527.3333333333333333333333334 393.3333333333333333333333334,527.3333333333333333333333334" stroke-linejoin="round" fill="none" stroke="#000000" stroke-width="1.25" vector-effect="non-scaling-stroke" />
      <polygon data-feature="square-outline" data-square="square-010" points="438,572 482.6666666666666666666666667,572 482.6666666666666666666666667,527.3333333333333333333333334 438,527.3333333333333333333333334" stroke-linejoin="round" fill="none" stroke="#000000" stroke-width="1.25" vector-effect="non-scaling-stroke" />
      <polygon data-feature="square-outline" data-square="square-011" points="482.6666666666666666666666667,572 527.3333333333333333333333334,572 527.3333333333333333333333334,527.3333333333333333333333334 482.6666666666666666666666667,527.3333333333333333333333334" stroke-linejoin="round" fill="none" stroke="#000000" stroke-width="1.25" vector-effect="non-scaling-stroke" />
      <polygon data-feature="square-outline" data-square="square-012" points="527.3333333333333333333333334,572 572,572 572,527.3333333333333333333333334 527.3333333333333333333333334,527.3333333333333333333333334" stroke-linejoin="round" fill="none" stroke="#000000" stroke-width="1.25" vector-effect="non-scaling-stroke" />
      <polygon data-feature="square-outline" data-square="square-013" points="36,527.3333333333333333333333334 80.66666666666666666666666667,527.3333333333333333333333334 80.66666666666666666666666667,482.6666666666666666666666667 36,482.6666666666666666666666667" stroke-linejoin="round" fill="none" stroke="#000000" stroke-width="1.25" vector-effect="non-scaling-stroke" />
      <polygon data-feature="square-outline" data-square="square-014" points="80.66666666666666666666666667,527.3333333333333333333333334 125.3333333333333333333333333,527.3333333333333333333333334 125.3333333333333333333333333,482.6666666666666666666666667 80.66666666666666666666666667,482.6666666666666666666666667" stroke-linejoin="round" fill="none" stroke="#000000" stroke-width="1.25" vector-effect="non-scaling-stroke" />
      <polygon data-feature="square-outline" data-square="square-015" points="125.3333333333333333333333333,527.3333333333333333333333334 170,527.3333333333333333333333334 170,482.6666666666666666666666667 125.3333333333333333333333333,482.6666666666666666666666667" stroke-linejoin="round" fill="none" stroke="#000000" stroke-width="1.25" vector-effect="non-scaling-stroke" />
      <polygon data-feature="square-outline" data-square="square-016" points="170,527.3333333333333333333333334 214.6666666666666666666666667,527.3333333333333333333333334 214.6666666666666666666666667,482.6666666666666666666666667 170,482.6666666666666666666666667" stroke-linejoin="round" fill="none" stroke="#000000" stroke-width="1.25" vector-effect="non-scaling-stroke" />
      <polygon data-feature="square-outline" data-square="square-017" points="214.6666666666666666666666667,527.3333333333333333333333334 259.3333333333333333333333334,527.3333333333333333333333334 259.3333333333333333333333334,482.6666666666666666666666667 214.6666666666666666666666667,482.6666666666666666666666667" stroke-linejoin="round" fill="none" stroke="#000000" stroke-width="1.25" vector-effect="non-scaling-stroke" />
      <polygon data-feature="square-outline" data-square="square-018" points="259.3333333333333333333333334,527.3333333333333333333333334 304,527.3333333333333333333333334 304,482.6666666666666666666666667 259.3333333333333333333333334,482.6666666666666666666666667" stroke-linejoin="round" fill="none" stroke="#000000" stroke-width="1.25" vector-effect="non-scaling-stroke" />
      <polygon data-feature="square-outline" data-square="square-019" points="304,527.3333333333333333333333334 348.6666666666666666666666667,527.3333333333333333333333334 348.6666666666666666666666667,482.6666666666666666666666667 304,482.6666666666666666666666667" stroke-linejoin="round" fill="none" stroke="#000000" stroke-width="1.25" vector-effect="non-scaling-stroke" />
      <polygon data-feature="square-outline" data-square="square-020" points="348.6666666666666666666666667,527.3333333333333333333333334 393.3333333333333333333333334,527.3333333333333333333333334 393.3333333333333333333333334,482.6666666666666666666666667 348.6666666666666666666666667,482.6666666666666666666666667" stroke-linejoin="round" fill="none" stroke="#000000" stroke-width="1.25" vector-effect="non-scaling-stroke" />
      <polygon data-feature="square-outline" data-square="square-021" points="393.3333333333333333333333334,527.3333333333333333333333334 438,527.3333333333333333333333334 438,482.6666666666666666666666667 393.3333333333333333333333334,482.6666666666666666666666667" stroke-linejoin="round" fill="none" stroke="#000000" stroke-width="1.25" vector-effect="non-scaling-stroke" />
      <polygon data-feature="square-outline" data-square="square-022" points="438,527.3333333333333333333333334 482.6666666666666666666666667,527.3333333333333333333333334 482.6666666666666666666666667,482.6666666666666666666666667 438,482.6666666666666666666666667" stroke-linejoin="round" fill="none" stroke="#000000" stroke-width="1.25" vector-effect="non-scaling-stroke" />
      <polygon data-feature="square-outline" data-square="square-023" points="482.6666666666666666666666667,527.3333333333333333333333334 527.3333333333333333333333334,527.3333333333333333333333334 527.3333333333333333333333334,482.6666666666666666666666667 482.6666666666666666666666667,482.6666666666666666666666667" stroke-linejoin="round" fill="none" stroke="#000000" stroke-width="1.25" vector-effect="non-scaling-stroke" />
      <polygon data-feature="square-outline" data-square="square-024" points="527.3333333333333333333333334,527.3333333333333333333333334 572,527.3333333333333333333333334 572,482.6666666666666666666666667 527.3333333333333333333333334,482.6666666666666666666666667" stroke-linejoin="round" fill="none" stroke="#000000" stroke-width="1.25" vector-effect="non-scaling-stroke" />
      <polygon data-feature="square-outline" data-square="square-025" points="36,482.6666666666666666666666667 80.66666666666666666666666667,482.6666666666666666666666667 80.66666666666666666666666667,438 36,438" stroke-linejoin="round" fill="none" stroke="#000000" stroke-width="1.25" vector-effect="non-scaling-stroke" />
      <polygon data-feature="square-outline" data-square="square-026" points="80.66666666666666666666666667,482.6666666666666666666666667 125.3333333333333333333333333,482.6666666666666666666666667 125.3333333333333333333333333,438 80.66666666666666666666666667,438" stroke-linejoin="round" fill="none" stroke="#000000" stroke-width="1.25" vector-effect="non-scaling-stroke" />
      <polygon data-feature="square-outline" data-square="square-027" points="125.3333333333333333333333333,482.6666666666666666666666667 170,482.6666666666666666666666667 170,438 125.3333333333333333333333333,438" stroke-linejoin="round" fill="none" stroke="#000000" stroke-width="1.25" vector-effect="non-scaling-stroke" />
      <polygon data-feature="square-outline" data-square="square-028" points="170,482.6666666666666666666666667 214.6666666666666666666666667,482.6666666666666666666666667 214.6666666666666666666666667,438 170,438" stroke-linejoin="round" fill="none" stroke="#000000" stroke-width="1.25" vector-effect="non-scaling-stroke" />
      <polygon data-feature="square-outline" data-square="square-029" points="214.6666666666666666666666667,482.6666666666666666666666667 259.3333333333333333333333334,482.6666666666666666666666667 259.3333333333333333333333334,438 214.6666666666666666666666667,438" stroke-linejoin="round" fill="none" stroke="#000000" stroke-width="1.25" vector-effect="non-scaling-stroke" />
      <polygon data-feature="square-outline" data-square="square-030" points="259.3333333333333333333333334,482.6666666666666666666666667 304,482.6666666666666666666666667 304,438 259.3333333333333333333333334,438" stroke-linejoin="round" fill="none" stroke="#000000" stroke-width="1.25" vector-effect="non-scaling-stroke" />
      <polygon data-feature="square-outline" data-square="square-031" points="304,482.6666666666666666666666667 348.6666666666666666666666667,482.6666666666666666666666667 348.6666666666666666666666667,438 304,438" stroke-linejoin="round" fill="none" stroke="#000000" stroke-width="1.25" vector-effect="non-scaling-stroke" />
      <polygon data-feature="square-outline" data-square="square-032" points="348.6666666666666666666666667,482.6666666666666666666666667 393.3333333333333333333333334,482.6666666666666666666666667 393.3333333333333333333333334,438 348.6666666666666666666666667,438" stroke-linejoin="round" fill="none" stroke="#000000" stroke-width="1.25" vector-effect="non-scaling-stroke" />
      <polygon data-feature="square-outline" data-square="square-033" points="393.3333333333333333333333334,482.6666666666666666666666667 438,482.6666666666666666666666667 438,438 393.3333333333333333333333334,438" stroke-linejoin="round" fill="none" stroke="#000000" stroke-width="1.25" vector-effect="non-scaling-stroke" />
      <polygon data-feature="square-outline" data-square="square-034" points="438,482.6666666666666666666666667 482.6666666666666666666666667,482.6666666666666666666666667 482.6666666666666666666666667,438 438,438" stroke-linejoin="round" fill="none" stroke="#000000" stroke-width="1.25" vector-effect="non-scaling-stroke" />
      <polygon data-feature="square-outline" data-square="square-035" points="482.6666666666666666666666667,482.6666666666666666666666667 527.3333333333333333333333334,482.6666666666666666666666667 527.3333333333333333333333334,438 482.6666666666666666666666667,438" stroke-linejoin="round" fill="none" stroke="#000000" stroke-width="1.25" vector-effect="non-scaling-stroke" />
      <polygon data-feature="square-outline" data-square="square-036" points="527.3333333333333333333333334,482.6666666666666666666666667 572,482.6666666666666666666666667 572,438 527.3333333333333333333333334,438" stroke-linejoin="round" fill="none" stroke="#000000" stroke-width="1.25" vector-effect="non-scaling-stroke" />
      <polygon data-feature="square-outline" data-square="square-037" points="36,438 80.66666666666666666666666667,438 80.66666666666666666666666667,393.3333333333333333333333334 36,393.3333333333333333333333334" stroke-linejoin="round" fill="none" stroke="#000000" stroke-width="1.25" vector-effect="non-scaling-stroke" />
      <polygon data-feature="square-outline" data-square="square-038" points="80.66666666666666666666666667,438 125.3333333333333333333333333,438 125.3333333333333333333333333,393.3333333333333333333333334 80.66666666666666666666666667,393.3333333333333333333333334" stroke-linejoin="round" fill="none" stroke="#000000" stroke-width="1.25" vector-effect="non-scaling-stroke" />
      <polygon data-feature="square-outline" data-square="square-039" points="125.3333333333333333333333333,438 170,438 170,393.3333333333333333333333334 125.3333333333333333333333333,393.3333333333333333333333334" stroke-linejoin="round" fill="none" stroke="#000000" stroke-width="1.25" vector-effect="non-scaling-stroke" />
      <polygon data-feature="square-outline" data-square="square-040" points="170,438 214.6666666666666666666666667,438 214.6666666666666666666666667,393.3333333333333333333333334 170,393.3333333333333333333333334" stroke-linejoin="round" fill="none" stroke="#000000" stroke-width="1.25" vector-effect="non-scaling-stroke" />
      <polygon data-feature="square-outline" data-square="square-041" points="214.6666666666666666666666667,438 259.3333333333333333333333334,438 259.3333333333333333333333334,393.3333333333333333333333334 214.6666666666666666666666667,393.3333333333333333333333334" stroke-linejoin="round" fill="none" stroke="#000000" stroke-width="1.25" vector-effect="non-scaling-stroke" />
      <polygon data-feature="square-outline" data-square="square-042" points="259.3333333333333333333333334,438 304,438 304,393.3333333333333333333333334 259.3333333333333333333333334,393.3333333333333333333333334" stroke-linejoin="round" fill="none" stroke="#000000" stroke-width="1.25" vector-effect="non-scaling-stroke" />
      <polygon data-feature="square-outline" data-square="square-043" points="304,438 348.6666666666666666666666667,438 348.6666666666666666666666667,393.3333333333333333333333334 304,393.3333333333333333333333334" stroke-linejoin="round" fill="none" stroke="#000000" stroke-width="1.25" vector-effect="non-scaling-stroke" />
      <polygon data-feature="square-outline" data-square="square-044" points="348.6666666666666666666666667,438 393.3333333333333333333333334,438 393.3333333333333333333333334,393.3333333333333333333333334 348.6666666666666666666666667,393.3333333333333333333333334" stroke-linejoin="round" fill="none" stroke="#000000" stroke-width="1.25" vector-effect="non-scaling-stroke" />
      <polygon data-feature="square-outline" data-square="square-045" points="393.3333333333333333333333334,438 438,438 438,393.3333333333333333333333334 393.3333333333333333333333334,393.3333333333333333333333334" stroke-linejoin="round" fill="none" stroke="#000000" stroke-width="1.25" vector-effect="non-scaling-stroke" />
      <polygon data-feature="square-outline" data-square="square-046" points="438,438 482.6666666666666666666666667,438 482.6666666666666666666666667,393.3333333333333333333333334 438,393.3333333333333333333333334" stroke-linejoin="round" fill="none" stroke="#000000" stroke-width="1.25" vector-effect="non-scaling-stroke" />
      <polygon data-feature="square-outline" data-square="square-047" points="482.6666666666666666666666667,438 527.3333333333333333333333334,438 527.3333333333333333333333334,393.3333333333333333333333334 482.6666666666666666666666667,393.3333333333333333333333334" stroke-linejoin="round" fill="none" stroke="#000000" stroke-width="1.25" vector-effect="non-scaling-stroke" />
      <polygon data-feature="square-outline" data-square="square-048" points="527.3333333333333333333333334,438 572,438 572,393.3333333333333333333333334 527.3333333333333333333333334,393.3333333333333333333333334" stroke-linejoin="round" fill="none" stroke="#000000" stroke-width="1.25" vector-effect="non-scaling-stroke" />
      <polygon data-feature="square-outline" data-square="square-049" points="36,393.3333333333333333333333334 80.66666666666666666666666667,393.3333333333333333333333334 80.66666666666666666666666667,348.6666666666666666666666667 36,348.6666666666666666666666667" stroke-linejoin="round" fill="none" stroke="#000000" stroke-width="1.25" vector-effect="non-scaling-stroke" />
      <polygon data-feature="square-outline" data-square="square-050" points="80.66666666666666666666666667,393.3333333333333333333333334 125.3333333333333333333333333,393.3333333333333333333333334 125.3333333333333333333333333,348.6666666666666666666666667 80.66666666666666666666666667,348.6666666666666666666666667" stroke-linejoin="round" fill="none" stroke="#000000" stroke-width="1.25" vector-effect="non-scaling-stroke" />
      <polygon data-feature="square-outline" data-square="square-051" points="125.3333333333333333333333333,393.3333333333333333333333334 170,393.3333333333333333333333334 170,348.6666666666666666666666667 125.3333333333333333333333333,348.6666666666666666666666667" stroke-linejoin="round" fill="none" stroke="#000000" stroke-width="1.25" vector-effect="non-scaling-stroke" />
      <polygon data-feature="square-outline" data-square="square-052" points="170,393.3333333333333333333333334 214.6666666666666666666666667,393.3333333333333333333333334 214.6666666666666666666666667,348.6666666666666666666666667 170,348.6666666666666666666666667" stroke-linejoin="round" fill="none" stroke="#000000" stroke-width="1.25" vector-effect="non-scaling-stroke" />
      <polygon data-feature="square-outline" data-square="square-053" points="214.6666666666666666666666667,393.3333333333333333333333334 259.3333333333333333333333334,393.3333333333333333333333334 259.3333333333333333333333334,348.6666666666666666666666667 214.6666666666666666666666667,348.6666666666666666666666667" stroke-linejoin="round" fill="none" stroke="#000000" stroke-width="1.25" vector-effect="non-scaling-stroke" />
      <polygon data-feature="square-outline" data-square="square-054" points="259.3333333333333333333333334,393.3333333333333333333333334 304,393.3333333333333333333333334 304,348.6666666666666666666666667 259.3333333333333333333333334,348.6666666666666666666666667" stroke-linejoin="round" fill="none" stroke="#000000" stroke-width="1.25" vector-effect="non-scaling-stroke" />
      <polygon data-feature="square-outline" data-square="square-055" points="304,393.3333333333333333333333334 348.6666666666666666666666667,393.3333333333333333333333334 348.6666666666666666666666667,348.6666666666666666666666667 304,348.6666666666666666666666667" stroke-linejoin="round" fill="none" stroke="#000000" stroke-width="1.25" vector-effect="non-scaling-stroke" />
      <polygon data-feature="square-outline" data-square="square-056" points="348.6666666666666666666666667,393.3333333333333333333333334 393.3333333333333333333333334,393.3333333333333333333333334 393.3333333333333333333333334,348.6666666666666666666666667 348.6666666666666666666666667,348.6666666666666666666666667" stroke-linejoin="round" fill="none" stroke="#000000" stroke-width="1.25" vector-effect="non-scaling-stroke" />
      <polygon data-feature="square-outline" data-square="square-057" points="393.3333333333333333333333334,393.3333333333333333333333334 438,393.3333333333333333333333334 438,348.6666666666666666666666667 393.3333333333333333333333334,348.6666666666666666666666667" stroke-linejoin="round" fill="none" stroke="#000000" stroke-width="1.25" vector-effect="non-scaling-stroke" />
      <polygon data-feature="square-outline" data-square="square-058" points="438,393.3333333333333333333333334 482.6666666666666666666666667,393.3333333333333333333333334 482.6666666666666666666666667,348.6666666666666666666666667 438,348.6666666666666666666666667" stroke-linejoin="round" fill="none" stroke="#000000" stroke-width="1.25" vector-effect="non-scaling-stroke" />
      <polygon data-feature="square-outline" data-square="square-059" points="482.6666666666666666666666667,393.3333333333333333333333334 527.3333333333333333333333334,393.3333333333333333333333334 527.3333333333333333333333334,348.6666666666666666666666667 482.6666666666666666666666667,348.6666666666666666666666667" stroke-linejoin="round" fill="none" stroke="#000000" stroke-width="1.25" vector-effect="non-scaling-stroke" />
      <polygon data-feature="square-outline" data-square="square-060" points="527.3333333333333333333333334,393.3333333333333333333333334 572,393.3333333333333333333333334 572,348.6666666666666666666666667 527.3333333333333333333333334,348.6666666666666666666666667" stroke-linejoin="round" fill="none" stroke="#000000" stroke-width="1.25" vector-effect="non-scaling-stroke" />
      <polygon data-feature="square-outline" data-square="square-061" points="36,348.6666666666666666666666667 80.66666666666666666666666667,348.6666666666666666666666667 80.66666666666666666666666667,304 36,304" stroke-linejoin="round" fill="none" stroke="#000000" stroke-width="1.25" vector-effect="non-scaling-stroke" />
      <polygon data-feature="square-outline" data-square="square-062" points="80.66666666666666666666666667,348.6666666666666666666666667 125.3333333333333333333333333,348.6666666666666666666666667 125.3333333333333333333333333,304 80.66666666666666666666666667,304" stroke-linejoin="round" fill="none" stroke="#000000" stroke-width="1.25" vector-effect="non-scaling-stroke" />
      <polygon data-feature="square-outline" data-square="square-063" points="125.3333333333333333333333333,348.6666666666666666666666667 170,348.6666666666666666666666667 170,304 125.3333333333333333333333333,304" stroke-linejoin="round" fill="none" stroke="#000000" stroke-width="1.25" vector-effect="non-scaling-stroke" />
      <polygon data-feature="square-outline" data-square="square-064" points="170,348.6666666666666666666666667 214.6666666666666666666666667,348.6666666666666666666666667 214.6666666666666666666666667,304 170,304" stroke-linejoin="round" fill="none" stroke="#000000" stroke-width="1.25" vector-effect="non-scaling-stroke" />
      <polygon data-feature="square-outline" data-square="square-065" points="214.6666666666666666666666667,348.6666666666666666666666667 259.3333333333333333333333334,348.6666666666666666666666667 259.3333333333333333333333334,304 214.6666666666666666666666667,304" stroke-linejoin="round" fill="none" stroke="#000000" stroke-width="1.25" vector-effect="non-scaling-stroke" />
      <polygon data-feature="square-outline" data-square="square-066" points="259.3333333333333333333333334,348.6666666666666666666666667 304,348.6666666666666666666666667 304,304 259.3333333333333333333333334,304" stroke-linejoin="round" fill="none" stroke="#000000" stroke-width="1.25" vector-effect="non-scaling-stroke" />
      <polygon data-feature="square-outline" data-square="square-067" points="304,348.6666666666666666666666667 348.6666666666666666666666667,348.6666666666666666666666667 348.6666666666666666666666667,304 304,304" stroke-linejoin="round" fill="none" stroke="#000000" stroke-width="1.25" vector-effect="non-scaling-stroke" />
      <polygon data-feature="square-outline" data-square="square-068" points="348.6666666666666666666666667,348.6666666666666666666666667 393.3333333333333333333333334,348.6666666666666666666666667 393.3333333333333333333333334,304 348.6666666666666666666666667,304" stroke-linejoin="round" fill="none" stroke="#000000" stroke-width="1.25" vector-effect="non-scaling-stroke" />
      <polygon data-feature="square-outline" data-square="square-069" points="393.3333333333333333333333334,348.6666666666666666666666667 438,348.6666666666666666666666667 438,304 393.3333333333333333333333334,304" stroke-linejoin="round" fill="none" stroke="#000000" stroke-width="1.25" vector-effect="non-scaling-stroke" />
      <polygon data-feature="square-outline" data-square="square-070" points="438,348.6666666666666666666666667 482.6666666666666666666666667,348.6666666666666666666666667 482.6666666666666666666666667,304 438,304" stroke-linejoin="round" fill="none" stroke="#000000" stroke-width="1.25" vector-effect="non-scaling-stroke" />
      <polygon data-feature="square-outline" data-square="square-071" points="482.6666666666666666666666667,348.6666666666666666666666667 527.3333333333333333333333334,348.6666666666666666666666667 527.3333333333333333333333334,304 482.6666666666666666666666667,304" stroke-linejoin="round" fill="none" stroke="#000000" stroke-width="1.25" vector-effect="non-scaling-stroke" />
      <polygon data-feature="square-outline" data-square="square-072" points="527.3333333333333333333333334,348.6666666666666666666666667 572,348.6666666666666666666666667 572,304 527.3333333333333333333333334,304" stroke-linejoin="round" fill="none" stroke="#000000" stroke-width="1.25" vector-effect="non-scaling-stroke" />
      <polygon data-feature="square-outline" data-square="square-073" points="36,304 80.66666666666666666666666667,304 80.66666666666666666666666667,259.3333333333333333333333334 36,259.3333333333333333333333334" stroke-linejoin="round" fill="none" stroke="#000000" stroke-width="1.25" vector-effect="non-scaling-stroke" />
      <polygon data-feature="square-outline" data-square="square-074" points="80.66666666666666666666666667,304 125.3333333333333333333333333,304 125.3333333333333333333333333,259.3333333333333333333333334 80.66666666666666666666666667,259.3333333333333333333333334" stroke-linejoin="round" fill="none" stroke="#000000" stroke-width="1.25" vector-effect="non-scaling-stroke" />
      <polygon data-feature="square-outline" data-square="square-075" points="125.3333333333333333333333333,304 170,304 170,259.3333333333333333333333334 125.3333333333333333333333333,259.3333333333333333333333334" stroke-linejoin="round" fill="none" stroke="#000000" stroke-width="1.25" vector-effect="non-scaling-stroke" />
      <polygon data-feature="square-outline" data-square="square-076" points="170,304 214.6666666666666666666666667,304 214.6666666666666666666666667,259.3333333333333333333333334 170,259.3333333333333333333333334" stroke-linejoin="round" fill="none" stroke="#000000" stroke-width="1.25" vector-effect="non-scaling-stroke" />
      <polygon data-feature="square-outline" data-square="square-077" points="214.6666666666666666666666667,304 259.3333333333333333333333334,304 259.3333333333333333333333334,259.3333333333333333333333334 214.6666666666666666666666667,259.3333333333333333333333334" stroke-linejoin="round" fill="none" stroke="#000000" stroke-width="1.25" vector-effect="non-scaling-stroke" />
      <polygon data-feature="square-outline" data-square="square-078" points="259.3333333333333333333333334,304 304,304 304,259.3333333333333333333333334 259.3333333333333333333333334,259.3333333333333333333333334" stroke-linejoin="round" fill="none" stroke="#000000" stroke-width="1.25" vector-effect="non-scaling-stroke" />
      <polygon data-feature="square-outline" data-square="square-079" points="304,304 348.6666666666666666666666667,304 348.6666666666666666666666667,259.3333333333333333333333334 304,259.3333333333333333333333334" stroke-linejoin="round" fill="none" stroke="#000000" stroke-width="1.25" vector-effect="non-scaling-stroke" />
      <polygon data-feature="square-outline" data-square="square-080" points="348.6666666666666666666666667,304 393.3333333333333333333333334,304 393.3333333333333333333333334,259.3333333333333333333333334 348.6666666666666666666666667,259.3333333333333333333333334" stroke-linejoin="round" fill="none" stroke="#000000" stroke-width="1.25" vector-effect="non-scaling-stroke" />
      <polygon data-feature="square-outline" data-square="square-081" points="393.3333333333333333333333334,304 438,304 438,259.3333333333333333333333334 393.3333333333333333333333334,259.3333333333333333333333334" stroke-linejoin="round" fill="none" stroke="#000000" stroke-width="1.25" vector-effect="non-scaling-stroke" />
      <polygon data-feature="square-outline" data-square="square-082" points="438,304 482.6666666666666666666666667,304 482.6666666666666666666666667,259.3333333333333333333333334 438,259.3333333333333333333333334" stroke-linejoin="round" fill="none" stroke="#000000" stroke-width="1.25" vector-effect="non-scaling-stroke" />
      <polygon data-feature="square-outline" data-square="square-083" points="482.6666666666666666666666667,304 527.3333333333333333333333334,304 527.3333333333333333333333334,259.3333333333333333333333334 482.6666666666666666666666667,259.3333333333333333333333334" stroke-linejoin="round" fill="none" stroke="#000000" stroke-width="1.25" vector-effect="non-scaling-stroke" />
      <polygon data-feature="square-outline" data-square="square-084" points="527.3333333333333333333333334,304 572,304 572,259.3333333333333333333333334 527.3333333333333333333333334,259.3333333333333333333333334" stroke-linejoin="round" fill="none" stroke="#000000" stroke-width="1.25" vector-effect="non-scaling-stroke" />
      <polygon data-feature="square-outline" data-square="square-085" points="36,259.3333333333333333333333334 80.66666666666666666666666667,259.3333333333333333333333334 80.66666666666666666666666667,214.6666666666666666666666667 36,214.6666666666666666666666667" stroke-linejoin="round" fill="none" stroke="#000000" stroke-width="1.25" vector-effect="non-scaling-stroke" />
      <polygon data-feature="square-outline" data-square="square-086" points="80.66666666666666666666666667,259.3333333333333333333333334 125.3333333333333333333333333,259.3333333333333333333333334 125.3333333333333333333333333,214.6666666666666666666666667 80.66666666666666666666666667,214.6666666666666666666666667" stroke-linejoin="round" fill="none" stroke="#000000" stroke-width="1.25" vector-effect="non-scaling-stroke" />
      <polygon data-feature="square-outline" data-square="square-087" points="125.3333333333333333333333333,259.3333333333333333333333334 170,259.3333333333333333333333334 170,214.6666666666666666666666667 125.3333333333333333333333333,214.6666666666666666666666667" stroke-linejoin="round" fill="none" stroke="#000000" stroke-width="1.25" vector-effect="non-scaling-stroke" />
      <polygon data-feature="square-outline" data-square="square-088" points="170,259.3333333333333333333333334 214.6666666666666666666666667,259.3333333333333333333333334 214.6666666666666666666666667,214.6666666666666666666666667 170,214.6666666666666666666666667" stroke-linejoin="round" fill="none" stroke="#000000" stroke-width="1.25" vector-effect="non-scaling-stroke" />
      <polygon data-feature="square-outline" data-square="square-089" points="214.6666666666666666666666667,259.3333333333333333333333334 259.3333333333333333333333334,259.3333333333333333333333334 259.3333333333333333333333334,214.6666666666666666666666667 214.6666666666666666666666667,214.6666666666666666666666667" stroke-linejoin="round" fill="none" stroke="#000000" stroke-width="1.25" vector-effect="non-scaling-stroke" />
      <polygon data-feature="square-outline" data-square="square-090" points="259.3333333333333333333333334,259.3333333333333333333333334 304,259.3333333333333333333333334 304,214.6666666666666666666666667 259.3333333333333333333333334,214.6666666666666666666666667" stroke-linejoin="round" fill="none" stroke="#000000" stroke-width="1.25" vector-effect="non-scaling-stroke" />
      <polygon data-feature="square-outline" data-square="square-091" points="304,259.3333333333333333333333334 348.6666666666666666666666667,259.3333333333333333333333334 348.6666666666666666666666667,214.6666666666666666666666667 304,214.6666666666666666666666667" stroke-linejoin="round" fill="none" stroke="#000000" stroke-width="1.25" vector-effect="non-scaling-stroke" />
      <polygon data-feature="square-outline" data-square="square-092" points="348.6666666666666666666666667,259.3333333333333333333333334 393.3333333333333333333333334,259.3333333333333333333333334 393.3333333333333333333333334,214.6666666666666666666666667 348.6666666666666666666666667,214.6666666666666666666666667" stroke-linejoin="round" fill="none" stroke="#000000" stroke-width="1.25" vector-effect="non-scaling-stroke" />
      <polygon data-feature="square-outline" data-square="square-093" points="393.3333333333333333333333334,259.3333333333333333333333334 438,259.3333333333333333333333334 438,214.6666666666666666666666667 393.3333333333333333333333334,214.6666666666666666666666667" stroke-linejoin="round" fill="none" stroke="#000000" stroke-width="1.25" vector-effect="non-scaling-stroke" />
      <polygon data-feature="square-outline" data-square="square-094" points="438,259.3333333333333333333333334 482.6666666666666666666666667,259.3333333333333333333333334 482.6666666666666666666666667,214.6666666666666666666666667 438,214.6666666666666666666666667" stroke-linejoin="round" fill="none" stroke="#000000" stroke-width="1.25" vector-effect="non-scaling-stroke" />
      <polygon data-feature="square-outline" data-square="square-095" points="482.6666666666666666666666667,259.3333333333333333333333334 527.3333333333333333333333334,259.3333333333333333333333334 527.3333333333333333333333334,214.6666666666666666666666667 482.6666666666666666666666667,214.6666666666666666666666667" stroke-linejoin="round" fill="none" stroke="#000000" stroke-width="1.25" vector-effect="non-scaling-stroke" />
      <polygon data-feature="square-outline" data-square="square-096" points="527.3333333333333333333333334,259.3333333333333333333333334 572,259.3333333333333333333333334 572,214.6666666666666666666666667 527.3333333333333333333333334,214.6666666666666666666666667" stroke-linejoin="round" fill="none" stroke="#000000" stroke-width="1.25" vector-effect="non-scaling-stroke" />
      <polygon data-feature="square-outline" data-square="square-097" points="36,214.6666666666666666666666667 80.66666666666666666666666667,214.6666666666666666666666667 80.66666666666666666666666667,170 36,170" stroke-linejoin="round" fill="none" stroke="#000000" stroke-width="1.25" vector-effect="non-scaling-stroke" />
      <polygon data-feature="square-outline" data-square="square-098" points="80.66666666666666666666666667,214.6666666666666666666666667 125.3333333333333333333333333,214.6666666666666666666666667 125.3333333333333333333333333,170 80.66666666666666666666666667,170" stroke-linejoin="round" fill="none" stroke="#000000" stroke-width="1.25" vector-effect="non-scaling-stroke" />
      <polygon data-feature="square-outline" data-square="square-099" points="125.3333333333333333333333333,214.6666666666666666666666667 170,214.6666666666666666666666667 170,170 125.3333333333333333333333333,170" stroke-linejoin="round" fill="none" stroke="#000000" stroke-width="1.25" vector-effect="non-scaling-stroke" />
      <polygon data-feature="square-outline" data-square="square-100" points="170,214.6666666666666666666666667 214.6666666666666666666666667,214.6666666666666666666666667 214.6666666666666666666666667,170 170,170" stroke-linejoin="round" fill="none" stroke="#000000" stroke-width="1.25" vector-effect="non-scaling-stroke" />
      <polygon data-feature="square-outline" data-square="square-101" points="214.6666666666666666666666667,214.6666666666666666666666667 259.3333333333333333333333334,214.6666666666666666666666667 259.3333333333333333333333334,170 214.6666666666666666666666667,170" stroke-linejoin="round" fill="none" stroke="#000000" stroke-width="1.25" vector-effect="non-scaling-stroke" />
      <polygon data-feature="square-outline" data-square="square-102" points="259.3333333333333333333333334,214.6666666666666666666666667 304,214.6666666666666666666666667 304,170 259.3333333333333333333333334,170" stroke-linejoin="round" fill="none" stroke="#000000" stroke-width="1.25" vector-effect="non-scaling-stroke" />
      <polygon data-feature="square-outline" data-square="square-103" points="304,214.6666666666666666666666667 348.6666666666666666666666667,214.6666666666666666666666667 348.6666666666666666666666667,170 304,170" stroke-linejoin="round" fill="none" stroke="#000000" stroke-width="1.25" vector-effect="non-scaling-stroke" />
      <polygon data-feature="square-outline" data-square="square-104" points="348.6666666666666666666666667,214.6666666666666666666666667 393.3333333333333333333333334,214.6666666666666666666666667 393.3333333333333333333333334,170 348.6666666666666666666666667,170" stroke-linejoin="round" fill="none" stroke="#000000" stroke-width="1.25" vector-effect="non-scaling-stroke" />
      <polygon data-feature="square-outline" data-square="square-105" points="393.3333333333333333333333334,214.6666666666666666666666667 438,214.6666666666666666666666667 438,170 393.3333333333333333333333334,170" stroke-linejoin="round" fill="none" stroke="#000000" stroke-width="1.25" vector-effect="non-scaling-stroke" />
      <polygon data-feature="square-outline" data-square="square-106" points="438,214.6666666666666666666666667 482.6666666666666666666666667,214.6666666666666666666666667 482.6666666666666666666666667,170 438,170" stroke-linejoin="round" fill="none" stroke="#000000" stroke-width="1.25" vector-effect="non-scaling-stroke" />
      <polygon data-feature="square-outline" data-square="square-107" points="482.6666666666666666666666667,214.6666666666666666666666667 527.3333333333333333333333334,214.6666666666666666666666667 527.3333333333333333333333334,170 482.6666666666666666666666667,170" stroke-linejoin="round" fill="none" stroke="#000000" stroke-width="1.25" vector-effect="non-scaling-stroke" />
      <polygon data-feature="square-outline" data-square="square-108" points="527.3333333333333333333333334,214.6666666666666666666666667 572,214.6666666666666666666666667 572,170 527.3333333333333333333333334,170" stroke-linejoin="round" fill="none" stroke="#000000" stroke-width="1.25" vector-effect="non-scaling-stroke" />
      <polygon data-feature="square-outline" data-square="square-109" points="36,170 80.66666666666666666666666667,170 80.66666666666666666666666667,125.3333333333333333333333333 36,125.3333333333333333333333333" stroke-linejoin="round" fill="none" stroke="#000000" stroke-width="1.25" vector-effect="non-scaling-stroke" />
      <polygon data-feature="square-outline" data-square="square-110" points="80.66666666666666666666666667,170 125.3333333333333333333333333,170 125.3333333333333333333333333,125.3333333333333333333333333 80.66666666666666666666666667,125.3333333333333333333333333" stroke-linejoin="round" fill="none" stroke="#000000" stroke-width="1.25" vector-effect="non-scaling-stroke" />
      <polygon data-feature="square-outline" data-square="square-111" points="125.3333333333333333333333333,170 170,170 170,125.3333333333333333333333333 125.3333333333333333333333333,125.3333333333333333333333333" stroke-linejoin="round" fill="none" stroke="#000000" stroke-width="1.25" vector-effect="non-scaling-stroke" />
      <polygon data-feature="square-outline" data-square="square-112" points="170,170 214.6666666666666666666666667,170 214.6666666666666666666666667,125.3333333333333333333333333 170,125.3333333333333333333333333" stroke-linejoin="round" fill="none" stroke="#000000" stroke-width="1.25" vector-effect="non-scaling-stroke" />
      <polygon data-feature="square-outline" data-square="square-113" points="214.6666666666666666666666667,170 259.3333333333333333333333334,170 259.3333333333333333333333334,125.3333333333333333333333333 214.6666666666666666666666667,125.3333333333333333333333333" stroke-linejoin="round" fill="none" stroke="#000000" stroke-width="1.25" vector-effect="non-scaling-stroke" />
      <polygon data-feature="square-outline" data-square="square-114" points="259.3333333333333333333333334,170 304,170 304,125.3333333333333333333333333 259.3333333333333333333333334,125.3333333333333333333333333" stroke-linejoin="round" fill="none" stroke="#000000" stroke-width="1.25" vector-effect="non-scaling-stroke" />
      <polygon data-feature="square-outline" data-square="square-115" points="304,170 348.6666666666666666666666667,170 348.6666666666666666666666667,125.3333333333333333333333333 304,125.3333333333333333333333333" stroke-linejoin="round" fill="none" stroke="#000000" stroke-width="1.25" vector-effect="non-scaling-stroke" />
      <polygon data-feature="square-outline" data-square="square-116" points="348.6666666666666666666666667,170 393.3333333333333333333333334,170 393.3333333333333333333333334,125.3333333333333333333333333 348.6666666666666666666666667,125.3333333333333333333333333" stroke-linejoin="round" fill="none" stroke="#000000" stroke-width="1.25" vector-effect="non-scaling-stroke" />
      <polygon data-feature="square-outline" data-square="square-117" points="393.3333333333333333333333334,170 438,170 438,125.3333333333333333333333333 393.3333333333333333333333334,125.3333333333333333333333333" stroke-linejoin="round" fill="none" stroke="#000000" stroke-width="1.25" vector-effect="non-scaling-stroke" />
      <polygon data-feature="square-outline" data-square="square-118" points="438,170 482.6666666666666666666666667,170 482.6666666666666666666666667,125.3333333333333333333333333 438,125.3333333333333333333333333" stroke-linejoin="round" fill="none" stroke="#000000" stroke-width="1.25" vector-effect="non-scaling-stroke" />
      <polygon data-feature="square-outline" data-square="square-119" points="482.6666666666666666666666667,170 527.3333333333333333333333334,170 527.3333333333333333333333334,125.3333333333333333333333333 482.6666666666666666666666667,125.3333333333333333333333333" stroke-linejoin="round" fill="none" stroke="#000000" stroke-width="1.25" vector-effect="non-scaling-stroke" />
      <polygon data-feature="square-outline" data-square="square-120" points="527.3333333333333333333333334,170 572,170 572,125.3333333333333333333333333 527.3333333333333333333333334,125.3333333333333333333333333" stroke-linejoin="round" fill="none" stroke="#000000" stroke-width="1.25" vector-effect="non-scaling-stroke" />
      <polygon data-feature="square-outline" data-square="square-121" points="36,125.3333333333333333333333333 80.66666666666666666666666667,125.3333333333333333333333333 80.66666666666666666666666667,80.66666666666666666666666667 36,80.66666666666666666666666667" stroke-linejoin="round" fill="none" stroke="#000000" stroke-width="1.25" vector-effect="non-scaling-stroke" />
      <polygon data-feature="square-outline" data-square="square-122" points="80.66666666666666666666666667,125.3333333333333333333333333 125.3333333333333333333333333,125.3333333333333333333333333 125.3333333333333333333333333,80.66666666666666666666666667 80.66666666666666666666666667,80.66666666666666666666666667" stroke-linejoin="round" fill="none" stroke="#000000" stroke-width="1.25" vector-effect="non-scaling-stroke" />
      <polygon data-feature="square-outline" data-square="square-123" points="125.3333333333333333333333333,125.3333333333333333333333333 170,125.3333333333333333333333333 170,80.66666666666666666666666667 125.3333333333333333333333333,80.66666666666666666666666667" stroke-linejoin="round" fill="none" stroke="#000000" stroke-width="1.25" vector-effect="non-scaling-stroke" />
      <polygon data-feature="square-outline" data-square="square-124" points="170,125.3333333333333333333333333 214.6666666666666666666666667,125.3333333333333333333333333 214.6666666666666666666666667,80.66666666666666666666666667 170,80.66666666666666666666666667" stroke-linejoin="round" fill="none" stroke="#000000" stroke-width="1.25" vector-effect="non-scaling-stroke" />
      <polygon data-feature="square-outline" data-square="square-125" points="214.6666666666666666666666667,125.3333333333333333333333333 259.3333333333333333333333334,125.3333333333333333333333333 259.3333333333333333333333334,80.66666666666666666666666667 214.6666666666666666666666667,80.66666666666666666666666667" stroke-linejoin="round" fill="none" stroke="#000000" stroke-width="1.25" vector-effect="non-scaling-stroke" />
      <polygon data-feature="square-outline" data-square="square-126" points="259.3333333333333333333333334,125.3333333333333333333333333 304,125.3333333333333333333333333 304,80.66666666666666666666666667 259.3333333333333333333333334,80.66666666666666666666666667" stroke-linejoin="round" fill="none" stroke="#000000" stroke-width="1.25" vector-effect="non-scaling-stroke" />
      <polygon data-feature="square-outline" data-square="square-127" points="304,125.3333333333333333333333333 348.6666666666666666666666667,125.3333333333333333333333333 348.6666666666666666666666667,80.66666666666666666666666667 304,80.66666666666666666666666667" stroke-linejoin="round" fill="none" stroke="#000000" stroke-width="1.25" vector-effect="non-scaling-stroke" />
      <polygon data-feature="square-outline" data-square="square-128" points="348.6666666666666666666666667,125.3333333333333333333333333 393.3333333333333333333333334,125.3333333333333333333333333 393.3333333333333333333333334,80.66666666666666666666666667 348.6666666666666666666666667,80.66666666666666666666666667" stroke-linejoin="round" fill="none" stroke="#000000" stroke-width="1.25" vector-effect="non-scaling-stroke" />
      <polygon data-feature="square-outline" data-square="square-129" points="393.3333333333333333333333334,125.3333333333333333333333333 438,125.3333333333333333333333333 438,80.66666666666666666666666667 393.3333333333333333333333334,80.66666666666666666666666667" stroke-linejoin="round" fill="none" stroke="#000000" stroke-width="1.25" vector-effect="non-scaling-stroke" />
      <polygon data-feature="square-outline" data-square="square-130" points="438,125.3333333333333333333333333 482.6666666666666666666666667,125.3333333333333333333333333 482.6666666666666666666666667,80.66666666666666666666666667 438,80.66666666666666666666666667" stroke-linejoin="round" fill="none" stroke="#000000" stroke-width="1.25" vector-effect="non-scaling-stroke" />
      <polygon data-feature="square-outline" data-square="square-131" points="482.6666666666666666666666667,125.3333333333333333333333333 527.3333333333333333333333334,125.3333333333333333333333333 527.3333333333333333333333334,80.66666666666666666666666667 482.6666666666666666666666667,80.66666666666666666666666667" stroke-linejoin="round" fill="none" stroke="#000000" stroke-width="1.25" vector-effect="non-scaling-stroke" />
      <polygon data-feature="square-outline" data-square="square-132" points="527.3333333333333333333333334,125.3333333333333333333333333 572,125.3333333333333333333333333 572,80.66666666666666666666666667 527.3333333333333333333333334,80.66666666666666666666666667" stroke-linejoin="round" fill="none" stroke="#000000" stroke-width="1.25" vector-effect="non-scaling-stroke" />
      <polygon data-feature="square-outline" data-square="square-133" points="36,80.66666666666666666666666667 80.66666666666666666666666667,80.66666666666666666666666667 80.66666666666666666666666667,36 36,36" stroke-linejoin="round" fill="none" stroke="#000000" stroke-width="1.25" vector-effect="non-scaling-stroke" />
      <polygon data-feature="square-outline" data-square="square-134" points="80.66666666666666666666666667,80.66666666666666666666666667 125.3333333333333333333333333,80.66666666666666666666666667 125.3333333333333333333333333,36 80.66666666666666666666666667,36" stroke-linejoin="round" fill="none" stroke="#000000" stroke-width="1.25" vector-effect="non-scaling-stroke" />
      <polygon data-feature="square-outline" data-square="square-135" points="125.3333333333333333333333333,80.66666666666666666666666667 170,80.66666666666666666666666667 170,36 125.3333333333333333333333333,36" stroke-linejoin="round" fill="none" stroke="#000000" stroke-width="1.25" vector-effect="non-scaling-stroke" />
      <polygon data-feature="square-outline" data-square="square-136" points="170,80.66666666666666666666666667 214.6666666666666666666666667,80.66666666666666666666666667 214.6666666666666666666666667,36 170,36" stroke-linejoin="round" fill="none" stroke="#000000" stroke-width="1.25" vector-effect="non-scaling-stroke" />
      <polygon data-feature="square-outline" data-square="square-137" points="214.6666666666666666666666667,80.66666666666666666666666667 259.3333333333333333333333334,80.66666666666666666666666667 259.3333333333333333333333334,36 214.6666666666666666666666667,36" stroke-linejoin="round" fill="none" stroke="#000000" stroke-width="1.25" vector-effect="non-scaling-stroke" />
      <polygon data-feature="square-outline" data-square="square-138" points="259.3333333333333333333333334,80.66666666666666666666666667 304,80.66666666666666666666666667 304,36 259.3333333333333333333333334,36" stroke-linejoin="round" fill="none" stroke="#000000" stroke-width="1.25" vector-effect="non-scaling-stroke" />
      <polygon data-feature="square-outline" data-square="square-139" points="304,80.66666666666666666666666667 348.6666666666666666666666667,80.66666666666666666666666667 348.6666666666666666666666667,36 304,36" stroke-linejoin="round" fill="none" stroke="#000000" stroke-width="1.25" vector-effect="non-scaling-stroke" />
      <polygon data-feature="square-outline" data-square="square-140" points="348.6666666666666666666666667,80.66666666666666666666666667 393.3333333333333333333333334,80.66666666666666666666666667 393.3333333333333333333333334,36 348.6666666666666666666666667,36" stroke-linejoin="round" fill="none" stroke="#000000" stroke-width="1.25" vector-effect="non-scaling-stroke" />
      <rect data-feature="container-outline" x="36" y="36" width="536" height="536" fill="none" stroke="#000000" stroke-width="1.25" vector-effect="non-scaling-stroke" />
    </g>
  </g>
  <text x="36" y="602" font-size="18" font-family="system-ui, sans-serif" fill="#17202a" data-evidence="certified-upper-bound" stroke-dasharray="3 3">U n=140 prospective source construction: side ~ 12 (certified upper bound)</text>
</svg>
